<svg xmlns="http://www.w3.org/2000/svg" xmlns:xlink="http://www.w3.org/1999/xlink" width="400" zoomAndPan="magnify" viewBox="0 0 300 74.999997" height="100" preserveAspectRatio="xMidYMid meet" version="1.0"><defs><g/><clipPath id="id1"><path d="M 7.5 14.835938 L 78 14.835938 L 78 48.585938 L 7.5 48.585938 Z M 7.5 14.835938 " clip-rule="nonzero"/></clipPath><clipPath id="id2"><path d="M 7.5 29 L 49 29 L 49 48.585938 L 7.5 48.585938 Z M 7.5 29 " clip-rule="nonzero"/></clipPath><clipPath id="id3"><path d="M 26.078125 31.554688 L 59.828125 31.554688 L 59.828125 48.804688 L 26.078125 48.804688 Z M 26.078125 31.554688 " clip-rule="nonzero"/></clipPath></defs><g clip-path="url(#id1)"><path fill="#0c40d3" d="M 77.992188 48.589844 C 77.230469 29.820312 61.75 14.835938 42.753906 14.835938 C 23.757812 14.835938 8.277344 29.820312 7.515625 48.589844 L 77.992188 48.589844 " fill-opacity="1" fill-rule="nonzero"/></g><g clip-path="url(#id2)"><path fill="#dae5de" d="M 48.246094 48.589844 C 47.804688 37.742188 38.859375 29.082031 27.882812 29.082031 C 16.902344 29.082031 7.957031 37.742188 7.515625 48.589844 L 48.246094 48.589844 " fill-opacity="1" fill-rule="nonzero"/></g><g clip-path="url(#id3)"><path fill="#53d676" d="M 26.09375 48.804688 C 26.09375 39.277344 33.648438 31.554688 42.96875 31.554688 C 52.289062 31.554688 59.816406 39.277344 59.816406 48.804688 Z M 26.09375 48.804688 " fill-opacity="1" fill-rule="nonzero"/></g><g fill="#53d676" fill-opacity="1"><g transform="translate(82.877891, 49.072746)"><g><path d="M 4.828125 0 L 4.828125 -11.296875 L 19.132812 -11.296875 L 19.132812 -14.089844 L 4.828125 -14.089844 L 4.828125 -21.835938 L 20.316406 -21.835938 L 20.316406 -24.628906 L 1.851562 -24.628906 L 1.851562 0 Z M 4.828125 0 "/></g></g></g><g fill="#53d676" fill-opacity="1"><g transform="translate(104.376351, 49.072746)"><g><path d="M 10.507812 0.304688 C 12.96875 0.304688 16.488281 -0.121094 19.585938 -0.667969 L 19.585938 -16.882812 L 16.550781 -16.882812 L 16.550781 -2.886719 C 14.578125 -2.550781 12.269531 -2.308594 10.507812 -2.308594 C 6.652344 -2.308594 4.859375 -3.492188 4.859375 -6.679688 L 4.859375 -16.882812 L 1.851562 -16.882812 L 1.851562 -6.347656 C 1.851562 -1.335938 4.980469 0.304688 10.507812 0.304688 Z M 10.507812 0.304688 "/></g></g></g><g fill="#53d676" fill-opacity="1"><g transform="translate(125.783716, 49.072746)"><g><path d="M 4.859375 0 L 4.859375 -14.152344 C 6.832031 -14.515625 9.019531 -14.726562 10.78125 -14.726562 C 14.605469 -14.726562 16.398438 -13.542969 16.398438 -10.355469 L 16.398438 0 L 19.433594 0 L 19.433594 -10.8125 C 19.433594 -15.820312 16.429688 -17.429688 10.902344 -17.429688 C 8.441406 -17.429688 4.917969 -17.035156 1.851562 -16.488281 L 1.851562 0 Z M 4.859375 0 "/></g></g></g><g fill="#53d676" fill-opacity="1"><g transform="translate(147.069617, 49.072746)"><g><path d="M 20.5 -8.230469 C 20.5 -14.121094 16.550781 -17.460938 10.902344 -17.460938 C 4.917969 -17.460938 1.335938 -13.574219 1.335938 -8.5625 L 1.335938 -8.503906 C 1.335938 -2.855469 5.40625 0.363281 11.359375 0.363281 C 15.214844 0.363281 17.917969 -0.820312 19.648438 -1.882812 L 18.3125 -4.28125 C 16.792969 -3.339844 14.425781 -2.308594 11.417969 -2.308594 C 7.53125 -2.308594 4.980469 -4.433594 4.496094 -7.5 L 20.5 -7.5 Z M 10.902344 -14.789062 C 14.484375 -14.789062 16.855469 -12.816406 17.277344 -10.171875 L 4.554688 -10.171875 C 5.164062 -13.027344 7.5625 -14.789062 10.902344 -14.789062 Z M 10.902344 -14.789062 "/></g></g></g><g fill="#53d676" fill-opacity="1"><g transform="translate(168.90209, 49.072746)"><g><path d="M 4.859375 0 L 4.859375 -13.726562 C 6.074219 -14 8.167969 -14.210938 9.929688 -14.210938 L 13.332031 -14.210938 L 13.332031 -17.003906 L 10.265625 -17.003906 C 8.136719 -17.003906 4.675781 -16.824219 1.851562 -16.246094 L 1.851562 0 Z M 4.859375 0 "/></g></g></g><g fill="#53d676" fill-opacity="1"><g transform="translate(183.416588, 49.072746)"><g><path d="M 10.871094 -17.429688 C 8.078125 -17.429688 5.253906 -16.855469 3.21875 -16.1875 L 2.640625 -13.363281 C 4.890625 -14.152344 7.683594 -14.757812 10.324219 -14.757812 C 14.515625 -14.757812 16.246094 -13.484375 16.246094 -10.78125 L 16.246094 -9.898438 C 14 -10.144531 11.996094 -10.292969 10.050781 -10.292969 C 3.976562 -10.292969 1.304688 -8.382812 1.304688 -5.011719 L 1.304688 -4.980469 C 1.304688 -1.304688 4.070312 0.425781 10.386719 0.425781 C 13.089844 0.425781 16.398438 0.121094 19.285156 -0.363281 L 19.285156 -11.054688 C 19.285156 -15.609375 16.335938 -17.429688 10.871094 -17.429688 Z M 4.433594 -4.949219 C 4.433594 -6.953125 6.4375 -7.621094 10.839844 -7.621094 C 12.542969 -7.621094 14.605469 -7.5 16.246094 -7.257812 L 16.246094 -2.671875 C 14.699219 -2.460938 12.664062 -2.308594 10.839844 -2.308594 C 6.378906 -2.308594 4.433594 -3.097656 4.433594 -4.917969 Z M 4.433594 -4.949219 "/></g></g></g><g fill="#53d676" fill-opacity="1"><g transform="translate(204.520298, 49.072746)"><g><path d="M 4.859375 0 L 4.859375 -24.628906 L 1.851562 -24.628906 L 1.851562 0 Z M 4.859375 0 "/></g></g></g><g fill="#53d676" fill-opacity="1"><g transform="translate(211.230974, 49.072746)"><g/></g></g><g fill="#53d676" fill-opacity="1"><g transform="translate(217.486172, 49.072746)"><g><path d="M 4.828125 0 L 4.828125 -11.296875 L 19.132812 -11.296875 L 19.132812 -14.089844 L 4.828125 -14.089844 L 4.828125 -21.835938 L 20.316406 -21.835938 L 20.316406 -24.628906 L 1.851562 -24.628906 L 1.851562 0 Z M 4.828125 0 "/></g></g></g><g fill="#53d676" fill-opacity="1"><g transform="translate(238.984632, 49.072746)"><g><path d="M 12.390625 -23.808594 L 9.503906 -19.3125 L 11.996094 -19.3125 L 16.429688 -23.808594 Z M 10.871094 -17.429688 C 8.078125 -17.429688 5.253906 -16.855469 3.21875 -16.1875 L 2.640625 -13.363281 C 4.890625 -14.152344 7.683594 -14.757812 10.324219 -14.757812 C 14.515625 -14.757812 16.246094 -13.484375 16.246094 -10.78125 L 16.246094 -9.898438 C 14 -10.144531 11.996094 -10.292969 10.050781 -10.292969 C 3.976562 -10.292969 1.304688 -8.382812 1.304688 -5.011719 L 1.304688 -4.980469 C 1.304688 -1.304688 4.070312 0.425781 10.386719 0.425781 C 13.089844 0.425781 16.398438 0.121094 19.285156 -0.363281 L 19.285156 -11.054688 C 19.285156 -15.609375 16.335938 -17.429688 10.871094 -17.429688 Z M 4.433594 -4.949219 C 4.433594 -6.953125 6.4375 -7.621094 10.839844 -7.621094 C 12.542969 -7.621094 14.605469 -7.5 16.246094 -7.257812 L 16.246094 -2.671875 C 14.699219 -2.460938 12.664062 -2.308594 10.839844 -2.308594 C 6.378906 -2.308594 4.433594 -3.097656 4.433594 -4.917969 Z M 4.433594 -4.949219 "/></g></g></g><g fill="#53d676" fill-opacity="1"><g transform="translate(260.088352, 49.072746)"><g><path d="M 11.296875 0.363281 C 13.878906 0.363281 16.671875 -0.273438 18.34375 -1.125 L 17.15625 -3.554688 C 15.730469 -2.886719 13.664062 -2.339844 11.480469 -2.339844 C 6.953125 -2.339844 4.433594 -4.828125 4.433594 -8.5625 L 4.433594 -8.625 C 4.433594 -12.300781 6.953125 -14.757812 11.480469 -14.757812 C 13.695312 -14.757812 15.730469 -14.210938 17.097656 -13.511719 L 18.3125 -15.941406 C 16.582031 -16.792969 13.96875 -17.460938 11.328125 -17.460938 C 5.042969 -17.460938 1.335938 -13.816406 1.335938 -8.625 L 1.335938 -8.5625 C 1.335938 -3.308594 5.042969 0.363281 11.296875 0.363281 Z M 11.296875 0.363281 "/></g></g></g><g fill="#53d676" fill-opacity="1"><g transform="translate(279.036149, 49.072746)"><g><path d="M 3.339844 -19.34375 C 4.371094 -19.34375 5.101562 -19.859375 5.101562 -20.921875 C 5.101562 -21.863281 4.402344 -22.472656 3.339844 -22.472656 C 2.277344 -22.472656 1.578125 -21.863281 1.578125 -20.921875 C 1.578125 -19.859375 2.308594 -19.34375 3.339844 -19.34375 Z M 4.859375 0 L 4.859375 -16.882812 L 1.851562 -16.882812 L 1.851562 0 Z M 4.859375 0 "/></g></g></g><g fill="#53d676" fill-opacity="1"><g transform="translate(285.746825, 49.072746)"><g><path d="M 4.859375 0 L 4.859375 -24.628906 L 1.851562 -24.628906 L 1.851562 0 Z M 4.859375 0 "/></g></g></g></svg>